<svg width="90" height="30" viewBox="0 0 90 30" fill="none" xmlns="http://www.w3.org/2000/svg">
<g clip-path="url(#clip0)">
<path d="M82.6011 -0.000146641H7.15101C6.87599 -0.000146641 6.60426 -0.000146641 6.32996 0.00135336C6.10035 0.00285336 5.87257 0.00721086 5.64075 0.0108784C5.13714 0.0168047 4.6347 0.0611106 4.13783 0.143411C3.64164 0.227503 3.161 0.38604 2.71216 0.613661C2.26387 0.843207 1.85426 1.14148 1.49818 1.49766C1.14023 1.85283 0.841847 2.26337 0.614513 2.71347C0.38655 3.16269 0.22848 3.64406 0.145763 4.14096C0.0622582 4.63724 0.0173238 5.13924 0.0113625 5.64246C0.0044025 5.87241 0.0036675 6.10313 0 6.33311V23.6688C0.0036675 23.9017 0.0044025 24.1273 0.0113625 24.3602C0.0173256 24.8634 0.06226 25.3654 0.145763 25.8617C0.228252 26.3588 0.386331 26.8405 0.614513 27.2899C0.841744 27.7385 1.14017 28.1474 1.49818 28.5006C1.85291 28.8584 2.26279 29.1568 2.71216 29.3846C3.161 29.6129 3.64159 29.7723 4.13783 29.8577C4.63479 29.9394 5.13717 29.9837 5.64075 29.9903C5.87257 29.9954 6.10035 29.9984 6.32996 29.9984C6.60425 29.9999 6.876 29.9999 7.15101 29.9999H82.6011C82.8706 29.9999 83.1445 29.9999 83.4141 29.9984C83.6426 29.9984 83.877 29.9954 84.1055 29.9903C84.6081 29.984 85.1096 29.9397 85.6055 29.8577C86.1033 29.7717 86.5856 29.6123 87.0367 29.3846C87.4856 29.1567 87.8951 28.8582 88.2495 28.5006C88.6066 28.146 88.9057 27.7374 89.1358 27.2899C89.3622 26.8402 89.5188 26.3586 89.6001 25.8617C89.6837 25.3653 89.7302 24.8635 89.7393 24.3602C89.7422 24.1273 89.7422 23.9017 89.7422 23.6688C89.7481 23.3963 89.7481 23.1254 89.7481 22.8485V7.15195C89.7481 6.87729 89.7481 6.60483 89.7422 6.33311C89.7422 6.10313 89.7422 5.87241 89.7393 5.64243C89.7302 5.13917 89.6837 4.63728 89.6001 4.14093C89.5186 3.64431 89.362 3.16298 89.1358 2.71344C88.6728 1.81125 87.9387 1.07687 87.0367 0.613593C86.5856 0.386529 86.1033 0.228034 85.6055 0.143343C85.1096 0.0606804 84.6082 0.0163592 84.1055 0.0107734C83.877 0.00711336 83.6426 0.00271836 83.4141 0.00125586C83.1445 -0.000244141 82.8706 -0.000244141 82.6011 -0.000244141V-0.000146641Z" fill="#A6A6A6"/>
<path d="M6.33359 29.3438C6.10508 29.3438 5.88209 29.3408 5.65537 29.3357C5.18571 29.3296 4.71714 29.2887 4.25352 29.2134C3.82121 29.1389 3.40242 29.0005 3.01096 28.8025C2.62309 28.6061 2.26933 28.3487 1.96321 28.04C1.65267 27.735 1.39412 27.3812 1.19783 26.9926C0.999371 26.6016 0.862026 26.1824 0.790579 25.7498C0.713422 25.2848 0.671677 24.8147 0.665704 24.3435C0.660949 24.1853 0.654724 23.6587 0.654724 23.6587V6.33325C0.654724 6.33325 0.661354 5.8147 0.665742 5.66235C0.671461 5.19186 0.712963 4.72249 0.789889 4.2583C0.861468 3.82444 0.998919 3.40406 1.19748 3.01172C1.39306 2.62346 1.65017 2.2694 1.95884 1.96326C2.26717 1.65422 2.62207 1.39545 3.01059 1.19641C3.40115 0.99907 3.81915 0.861549 4.25058 0.788453C4.71573 0.712377 5.18593 0.671247 5.65722 0.665408L6.33396 0.65625H83.4104L84.0952 0.665775C84.5622 0.671324 85.0281 0.712087 85.489 0.787717C85.9248 0.861731 86.3472 1.00021 86.7422 1.19861C87.5205 1.59974 88.1539 2.23437 88.5534 3.01355C88.7488 3.40318 88.8841 3.82013 88.9548 4.25024C89.0327 4.71824 89.0762 5.1913 89.0852 5.66565C89.0873 5.87805 89.0873 6.1062 89.0873 6.33325C89.0933 6.6145 89.0933 6.8822 89.0933 7.1521V22.8486C89.0933 23.1211 89.0933 23.387 89.0873 23.655C89.0873 23.8989 89.0873 24.1223 89.0844 24.3523C89.0757 24.8182 89.0328 25.2828 88.9562 25.7424C88.8863 26.1782 88.7497 26.6006 88.5512 26.9949C88.3536 27.3792 88.0965 27.7299 87.7896 28.0342C87.4832 28.3445 87.1288 28.6035 86.74 28.8011C86.3461 29.0005 85.9243 29.1396 85.489 29.2134C85.0254 29.2891 84.5568 29.33 84.0871 29.3357C83.8674 29.3408 83.6374 29.3438 83.414 29.3438L82.601 29.3452L6.33359 29.3438Z" fill="black"/>
<path d="M18.5767 15.2252C18.5847 14.5993 18.751 13.9855 19.06 13.441C19.3691 12.8965 19.8108 12.4391 20.3441 12.1112C20.0053 11.6273 19.5583 11.2291 19.0387 10.9482C18.5191 10.6673 17.9411 10.5114 17.3507 10.4929C16.0913 10.3607 14.8703 11.2466 14.2286 11.2466C13.5744 11.2466 12.5862 10.5061 11.5222 10.528C10.8339 10.5502 10.1632 10.7503 9.57526 11.1089C8.98735 11.4674 8.50234 11.9721 8.16749 12.5739C6.71699 15.0852 7.79894 18.776 9.18839 20.8059C9.88357 21.7999 10.696 22.9103 11.7591 22.8709C12.7994 22.8278 13.1879 22.2075 14.4437 22.2075C15.6877 22.2075 16.0523 22.8709 17.1369 22.8459C18.2532 22.8277 18.9565 21.8474 19.6273 20.844C20.1268 20.1357 20.5111 19.3529 20.7661 18.5246C20.1176 18.2503 19.5641 17.7912 19.1748 17.2045C18.7855 16.6178 18.5774 15.9294 18.5767 15.2252Z" fill="white"/>
<path d="M16.528 9.158C17.1366 8.42735 17.4365 7.48821 17.3639 6.54004C16.434 6.6377 15.5751 7.08212 14.9582 7.78475C14.6566 8.128 14.4256 8.52732 14.2784 8.9599C14.1312 9.39248 14.0707 9.84982 14.1004 10.3058C14.5655 10.3106 15.0257 10.2098 15.4461 10.011C15.8666 9.81214 16.2365 9.5205 16.528 9.158Z" fill="white"/>
<path d="M31.7267 20.3545H28.1767L27.3242 22.8718H25.8205L29.183 13.5583H30.7453L34.1078 22.8718H32.5785L31.7267 20.3545ZM28.5444 19.1929H31.3584L29.9712 15.1074H29.9323L28.5444 19.1929Z" fill="white"/>
<path d="M41.3698 19.4771C41.3698 21.5872 40.2404 22.9429 38.536 22.9429C38.1043 22.9655 37.6749 22.866 37.2971 22.6559C36.9192 22.4458 36.6082 22.1336 36.3996 21.7549H36.3673V25.1182H34.9735V16.0816H36.3227V17.211H36.3483C36.5665 16.8341 36.8828 16.5235 37.2635 16.3121C37.6442 16.1007 38.0752 15.9965 38.5104 16.0105C40.2338 16.0105 41.3698 17.3728 41.3698 19.4771ZM39.9372 19.4771C39.9372 18.1023 39.2267 17.1985 38.1427 17.1985C37.0778 17.1985 36.3615 18.1214 36.3615 19.4771C36.3615 20.8453 37.0778 21.7615 38.1427 21.7615C39.2267 21.7615 39.9372 20.8643 39.9372 19.4771Z" fill="white"/>
<path d="M48.8434 19.4771C48.8434 21.5872 47.714 22.9429 46.0097 22.9429C45.5779 22.9655 45.1486 22.866 44.7707 22.6559C44.3929 22.4458 44.0818 22.1336 43.8732 21.7549H43.8409V25.1182H42.4471V16.0816H43.7963V17.211H43.8219C44.0401 16.8341 44.3564 16.5235 44.7371 16.3121C45.1179 16.1007 45.5488 15.9965 45.984 16.0105C47.7074 16.0105 48.8434 17.3728 48.8434 19.4771ZM47.4108 19.4771C47.4108 18.1023 46.7003 17.1985 45.6163 17.1985C44.5514 17.1985 43.8351 18.1214 43.8351 19.4771C43.8351 20.8452 44.5514 21.7615 45.6163 21.7615C46.7003 21.7615 47.4108 20.8643 47.4108 19.4771H47.4108Z" fill="white"/>
<path d="M53.7829 20.2769C53.8861 21.2005 54.7834 21.8069 56.0094 21.8069C57.1842 21.8069 58.0294 21.2005 58.0294 20.3677C58.0294 19.6448 57.5197 19.2119 56.3126 18.9153L55.1056 18.6245C53.3954 18.2114 52.6015 17.4116 52.6015 16.1138C52.6015 14.5068 54.0019 13.4031 55.9904 13.4031C57.9584 13.4031 59.3075 14.5068 59.3529 16.1138H57.9459C57.8617 15.1843 57.0934 14.6233 55.9706 14.6233C54.8478 14.6233 54.0795 15.1909 54.0795 16.0171C54.0795 16.6755 54.5702 17.063 55.7706 17.3596L56.7968 17.6116C58.7076 18.0635 59.5016 18.8311 59.5016 20.1933C59.5016 21.9358 58.1136 23.0271 55.9061 23.0271C53.8407 23.0271 52.4462 21.9614 52.3561 20.2768L53.7829 20.2769Z" fill="white"/>
<path d="M62.5097 14.4746V16.0815H63.801V17.1853H62.5097V20.9287C62.5097 21.5103 62.7682 21.7813 63.3359 21.7813C63.4892 21.7786 63.6422 21.7678 63.7944 21.749V22.8462C63.5392 22.8939 63.2798 22.9154 63.0202 22.9106C61.6454 22.9106 61.1093 22.3943 61.1093 21.0774V17.1853H60.122V16.0815H61.1093V14.4746H62.5097Z" fill="white"/>
<path d="M64.5488 19.477C64.5488 17.3406 65.8071 15.998 67.7693 15.998C69.738 15.998 70.9905 17.3405 70.9905 19.477C70.9905 21.6194 69.7446 22.9561 67.7693 22.9561C65.7946 22.9561 64.5488 21.6194 64.5488 19.477ZM69.5703 19.477C69.5703 18.0115 68.8987 17.1465 67.7693 17.1465C66.6399 17.1465 65.969 18.0181 65.969 19.477C65.969 20.9485 66.6399 21.8069 67.7693 21.8069C68.8987 21.8069 69.5703 20.9485 69.5703 19.477H69.5703Z" fill="white"/>
<path d="M72.1396 16.0815H73.4689V17.2373H73.5012C73.5911 16.8763 73.8026 16.5573 74.1 16.3339C74.3975 16.1105 74.7628 15.9963 75.1345 16.0105C75.2951 16.0099 75.4553 16.0273 75.612 16.0625V17.3662C75.4093 17.3042 75.1977 17.2758 74.9858 17.2819C74.7833 17.2737 74.5814 17.3094 74.3941 17.3866C74.2067 17.4638 74.0382 17.5806 73.9002 17.729C73.7622 17.8774 73.658 18.0539 73.5947 18.2464C73.5314 18.4389 73.5105 18.6428 73.5334 18.8442V22.8718H72.1396L72.1396 16.0815Z" fill="white"/>
<path d="M82.0383 20.8774C81.8508 22.1101 80.6503 22.9561 79.1144 22.9561C77.1391 22.9561 75.913 21.6326 75.913 19.5093C75.913 17.3794 77.1457 15.998 79.0558 15.998C80.9345 15.998 82.1159 17.2886 82.1159 19.3474V19.825H77.32V19.9092C77.2979 20.1591 77.3292 20.4108 77.4118 20.6477C77.4944 20.8846 77.6265 21.1012 77.7993 21.2831C77.9721 21.465 78.1815 21.6081 78.4139 21.7028C78.6462 21.7975 78.896 21.8417 79.1467 21.8325C79.476 21.8634 79.8066 21.7871 80.0891 21.615C80.3716 21.4429 80.5911 21.1842 80.7148 20.8774L82.0383 20.8774ZM77.3266 18.8508H80.7214C80.7339 18.6261 80.6998 18.4013 80.6213 18.1904C80.5428 17.9795 80.4215 17.7871 80.2652 17.6252C80.1088 17.4634 79.9206 17.3357 79.7125 17.25C79.5044 17.1643 79.2808 17.1226 79.0558 17.1274C78.8289 17.1261 78.6039 17.1697 78.3938 17.2558C78.1838 17.3418 77.9929 17.4686 77.8321 17.6288C77.6714 17.7891 77.5439 17.9795 77.4572 18.1893C77.3704 18.399 77.326 18.6239 77.3266 18.8508V18.8508Z" fill="white"/>
<path d="M27.5537 8.44004H28.1521C28.2551 8.45287 28.3597 8.44422 28.4592 8.41464C28.5587 8.38505 28.6509 8.33518 28.7302 8.26816C28.8095 8.20114 28.874 8.11842 28.9197 8.02523C28.9654 7.93203 28.9914 7.83037 28.9958 7.72666C28.9958 7.31395 28.6853 7.04734 28.1587 7.04734C28.0532 7.0326 27.9457 7.03915 27.8428 7.0666C27.7398 7.09406 27.6434 7.14187 27.5592 7.2072C27.475 7.27254 27.4048 7.35408 27.3526 7.44701C27.3005 7.53994 27.2675 7.64238 27.2556 7.74827H26.5986C26.6099 7.55605 26.6607 7.36821 26.7477 7.19645C26.8348 7.02469 26.9562 6.87269 27.1046 6.74991C27.2529 6.62714 27.4249 6.53621 27.6099 6.48279C27.7949 6.42938 27.989 6.41462 28.1799 6.43943C29.061 6.43943 29.6814 6.93271 29.6814 7.6428C29.6835 7.88068 29.6039 8.11208 29.4559 8.29836C29.308 8.48464 29.1006 8.61454 28.8684 8.66636V8.7191C29.1437 8.7313 29.4029 8.85199 29.5894 9.05477C29.7759 9.25756 29.8746 9.52594 29.8638 9.80125C29.8434 9.99917 29.7837 10.191 29.6882 10.3656C29.5928 10.5401 29.4634 10.6939 29.3077 10.8178C29.1521 10.9417 28.9732 11.0333 28.7817 11.0872C28.5902 11.1411 28.3898 11.1562 28.1924 11.1317C27.9945 11.1587 27.7933 11.1455 27.6006 11.0931C27.4079 11.0406 27.2278 10.9499 27.0709 10.8263C26.9141 10.7027 26.7837 10.5488 26.6876 10.3738C26.5915 10.1988 26.5316 10.0062 26.5115 9.80748H27.1787C27.219 10.2356 27.6123 10.5117 28.1924 10.5117C28.7725 10.5117 29.1511 10.2016 29.1511 9.76429C29.1511 9.32081 28.7944 9.04762 28.1711 9.04762H27.5537V8.44004Z" fill="white"/>
<path d="M30.6218 10.0681C30.6218 9.4602 31.0752 9.10974 31.8779 9.05993L32.7927 9.0072V8.7157C32.7927 8.359 32.5576 8.15759 32.1013 8.15759C31.7293 8.15759 31.4722 8.29419 31.3975 8.53296H30.7522C30.8203 7.95288 31.3667 7.58081 32.1328 7.58081C32.9795 7.58081 33.457 8.00231 33.457 8.7157V11.0232H32.8147V10.5486H32.762C32.6549 10.7188 32.5046 10.8576 32.3264 10.9508C32.1482 11.0439 31.9484 11.0881 31.7476 11.0788C31.6058 11.0936 31.4625 11.0785 31.3269 11.0344C31.1914 10.9904 31.0665 10.9185 30.9604 10.8232C30.8544 10.728 30.7695 10.6116 30.7111 10.4816C30.6528 10.3515 30.6224 10.2106 30.6218 10.0681ZM32.7927 9.77953V9.49719L31.968 9.54992C31.5029 9.58105 31.292 9.73925 31.292 10.037C31.292 10.3409 31.5556 10.5178 31.9182 10.5178C32.0244 10.5286 32.1318 10.5178 32.2338 10.4863C32.3358 10.4547 32.4304 10.403 32.512 10.3341C32.5936 10.2652 32.6605 10.1806 32.7087 10.0853C32.7569 9.99006 32.7855 9.88607 32.7927 9.77953Z" fill="white"/>
<path d="M35.2258 8.20703V11.0232H34.5593V7.646H36.783V8.207L35.2258 8.20703Z" fill="white"/>
<path d="M40.8223 9.33334C40.8223 10.4063 40.2795 11.0791 39.427 11.0791C39.2177 11.0934 39.0087 11.0476 38.8246 10.9471C38.6405 10.8466 38.4889 10.6956 38.3877 10.5118H38.335V12.1462H37.6685V7.64621H38.3101V8.20434H38.3599C38.4629 8.01417 38.6164 7.85617 38.8036 7.74779C38.9907 7.63942 39.2042 7.58488 39.4204 7.5902C40.2795 7.59018 40.8223 8.25997 40.8223 9.33334ZM40.1367 9.33334C40.1367 8.61996 39.7991 8.18893 39.2344 8.18893C38.6734 8.18893 38.3225 8.62911 38.3225 9.33627C38.3225 10.0401 38.6733 10.4807 39.2314 10.4807C39.7991 10.4807 40.1367 10.0496 40.1367 9.33334Z" fill="white"/>
<path d="M41.7099 12.2328V11.6589C41.7821 11.6681 41.8547 11.6723 41.9274 11.6714C42.0694 11.6819 42.2103 11.6396 42.323 11.5526C42.4358 11.4657 42.5124 11.3401 42.5383 11.2001L42.5881 11.0356L41.3657 7.646H42.0915L42.9382 10.3285H42.9909L43.8347 7.646H44.5415L43.2825 11.1627C42.9939 11.9845 42.6745 12.2482 41.9861 12.2482C41.9304 12.2482 41.7722 12.2419 41.7099 12.2328Z" fill="white"/>
<path d="M45.0608 10.0649H45.7244C45.7896 10.3626 46.0686 10.5179 46.459 10.5179C46.9028 10.5179 47.1753 10.3223 47.1753 10.0184C47.1753 9.69284 46.9307 9.53756 46.459 9.53756H45.9536V9.01974H46.4502C46.853 9.01974 47.0581 8.86484 47.0581 8.58249C47.0581 8.33456 46.8596 8.14524 46.4502 8.14524C46.0774 8.14524 45.8049 8.30345 45.7617 8.57005H45.1194C45.1674 8.2637 45.3337 7.98844 45.5826 7.80347C45.8315 7.61849 46.143 7.53857 46.4502 7.58091C47.2529 7.58091 47.7122 7.94383 47.7122 8.51438C47.7159 8.67327 47.665 8.82862 47.5679 8.95447C47.4709 9.08032 47.3336 9.16904 47.179 9.20579V9.25853C47.363 9.28227 47.532 9.37277 47.6538 9.51284C47.7756 9.65291 47.8417 9.83281 47.8396 10.0184C47.8396 10.6604 47.2932 11.0852 46.459 11.0852C45.7214 11.0852 45.1223 10.7471 45.0608 10.0649Z" fill="white"/>
<path d="M48.7994 11.0232V7.646H49.4601V9.96888H49.5128L51.0692 7.646H51.7299V11.0232H51.0692V8.68788H51.0194L49.4601 11.0232L48.7994 11.0232Z" fill="white"/>
<path d="M55.3693 8.20724H54.3058V11.0234H53.6385V8.20724H52.575V7.64624H55.3693V8.20724Z" fill="white"/>
<path d="M58.9596 10.1114C58.8688 10.42 58.6724 10.687 58.4048 10.8655C58.1372 11.0441 57.8153 11.123 57.4955 11.0884C57.273 11.0943 57.0519 11.0517 56.8475 10.9635C56.6431 10.8754 56.4604 10.7438 56.3119 10.578C56.1635 10.4121 56.0529 10.216 55.9879 10.0031C55.9229 9.79022 55.905 9.56576 55.9354 9.34527C55.9058 9.12411 55.924 8.89916 55.9889 8.68565C56.0538 8.47215 56.1637 8.27508 56.3114 8.10777C56.459 7.94047 56.6409 7.80684 56.8447 7.71593C57.0485 7.62503 57.2694 7.57896 57.4926 7.58087C58.4322 7.58087 58.9999 8.22287 58.9999 9.28337V9.51594H56.6151V9.55329C56.6046 9.67725 56.62 9.80205 56.6606 9.91967C56.7011 10.0373 56.7658 10.1451 56.8505 10.2362C56.9353 10.3274 57.0381 10.3997 57.1524 10.4488C57.2668 10.4978 57.3901 10.5223 57.5145 10.5208C57.6738 10.5398 57.8352 10.5111 57.9782 10.4382C58.1211 10.3653 58.2391 10.2515 58.3173 10.1114L58.9596 10.1114ZM56.6151 9.02301H58.3202C58.3286 8.90972 58.3132 8.79593 58.2751 8.68893C58.2369 8.58193 58.1768 8.4841 58.0986 8.40171C58.0204 8.31932 57.9258 8.2542 57.8209 8.21053C57.716 8.16686 57.6032 8.14561 57.4896 8.14814C57.3743 8.14657 57.2598 8.16813 57.153 8.21154C57.0462 8.25496 56.9491 8.31935 56.8676 8.40091C56.7861 8.48247 56.7217 8.57954 56.6784 8.68639C56.635 8.79325 56.6135 8.90771 56.6151 9.02301H56.6151Z" fill="white"/>
<path d="M61.7853 7.646H63.308C63.9686 7.646 64.3561 7.98071 64.3561 8.50475C64.3571 8.67103 64.301 8.83262 64.1971 8.96248C64.0933 9.09233 63.948 9.18258 63.7855 9.21812V9.27086C63.9827 9.28332 64.1677 9.37106 64.3021 9.51595C64.4365 9.66084 64.5101 9.85181 64.5077 10.0494C64.5077 10.6387 64.0646 11.0232 63.3234 11.0232H61.7853V7.646ZM62.4459 8.15759V9.03209H63.1066C63.5094 9.03209 63.702 8.87719 63.702 8.59154C63.702 8.32824 63.5343 8.15759 63.1806 8.15759L62.4459 8.15759ZM62.4459 9.5221V10.5116H63.2362C63.6303 10.5116 63.8412 10.3377 63.8412 10.0183C63.8412 9.68031 63.6024 9.52211 63.1527 9.52211L62.4459 9.5221Z" fill="white"/>
<path d="M82.6011 -0.000146641H7.15101C6.87599 -0.000146641 6.60426 -0.000146641 6.32996 0.00135336C6.10035 0.00285336 5.87257 0.00721086 5.64075 0.0108784C5.13714 0.0168047 4.6347 0.0611106 4.13783 0.143411C3.64164 0.227503 3.161 0.38604 2.71216 0.613661C2.26387 0.843207 1.85426 1.14148 1.49818 1.49766C1.14023 1.85283 0.841847 2.26337 0.614513 2.71347C0.38655 3.16269 0.22848 3.64406 0.145763 4.14096C0.0622582 4.63724 0.0173238 5.13924 0.0113625 5.64246C0.0044025 5.87241 0.0036675 6.10313 0 6.33311V23.6688C0.0036675 23.9017 0.0044025 24.1273 0.0113625 24.3602C0.0173256 24.8634 0.06226 25.3654 0.145763 25.8617C0.228252 26.3588 0.386331 26.8405 0.614513 27.2899C0.841744 27.7385 1.14017 28.1474 1.49818 28.5006C1.85291 28.8584 2.26279 29.1568 2.71216 29.3846C3.161 29.6129 3.64159 29.7723 4.13783 29.8577C4.63479 29.9394 5.13717 29.9837 5.64075 29.9903C5.87257 29.9954 6.10035 29.9984 6.32996 29.9984C6.60425 29.9999 6.876 29.9999 7.15101 29.9999H82.6011C82.8706 29.9999 83.1445 29.9999 83.4141 29.9984C83.6426 29.9984 83.877 29.9954 84.1055 29.9903C84.6081 29.984 85.1096 29.9397 85.6055 29.8577C86.1033 29.7717 86.5856 29.6123 87.0367 29.3846C87.4856 29.1567 87.8951 28.8582 88.2495 28.5006C88.6066 28.146 88.9057 27.7374 89.1358 27.2899C89.3622 26.8402 89.5188 26.3586 89.6001 25.8617C89.6837 25.3653 89.7302 24.8635 89.7393 24.3602C89.7422 24.1273 89.7422 23.9017 89.7422 23.6688C89.7481 23.3963 89.7481 23.1254 89.7481 22.8485V7.15195C89.7481 6.87729 89.7481 6.60483 89.7422 6.33311C89.7422 6.10313 89.7422 5.87241 89.7393 5.64243C89.7302 5.13917 89.6837 4.63728 89.6001 4.14093C89.5186 3.64431 89.362 3.16298 89.1358 2.71344C88.6728 1.81125 87.9387 1.07687 87.0367 0.613593C86.5856 0.386529 86.1033 0.228034 85.6055 0.143343C85.1096 0.0606804 84.6082 0.0163592 84.1055 0.0107734C83.877 0.00711336 83.6426 0.00271836 83.4141 0.00125586C83.1445 -0.000244141 82.8706 -0.000244141 82.6011 -0.000244141V-0.000146641Z" fill="#A6A6A6"/>
<path d="M6.33359 29.3438C6.10508 29.3438 5.88209 29.3408 5.65537 29.3357C5.18571 29.3296 4.71714 29.2887 4.25352 29.2134C3.82121 29.1389 3.40242 29.0005 3.01096 28.8025C2.62309 28.6061 2.26933 28.3487 1.96321 28.04C1.65267 27.735 1.39412 27.3812 1.19783 26.9926C0.999371 26.6016 0.862026 26.1824 0.790579 25.7498C0.713422 25.2848 0.671677 24.8147 0.665704 24.3435C0.660949 24.1853 0.654724 23.6587 0.654724 23.6587V6.33325C0.654724 6.33325 0.661354 5.8147 0.665742 5.66235C0.671461 5.19186 0.712963 4.72249 0.789889 4.2583C0.861468 3.82444 0.998919 3.40406 1.19748 3.01172C1.39306 2.62346 1.65017 2.2694 1.95884 1.96326C2.26717 1.65422 2.62207 1.39545 3.01059 1.19641C3.40115 0.99907 3.81915 0.861549 4.25058 0.788453C4.71573 0.712377 5.18593 0.671247 5.65722 0.665408L6.33396 0.65625H83.4104L84.0952 0.665775C84.5622 0.671324 85.0281 0.712087 85.489 0.787717C85.9248 0.861731 86.3472 1.00021 86.7422 1.19861C87.5205 1.59974 88.1539 2.23437 88.5534 3.01355C88.7488 3.40318 88.8841 3.82013 88.9548 4.25024C89.0327 4.71824 89.0762 5.1913 89.0852 5.66565C89.0873 5.87805 89.0873 6.1062 89.0873 6.33325C89.0933 6.6145 89.0933 6.8822 89.0933 7.1521V22.8486C89.0933 23.1211 89.0933 23.387 89.0873 23.655C89.0873 23.8989 89.0873 24.1223 89.0844 24.3523C89.0757 24.8182 89.0328 25.2828 88.9562 25.7424C88.8863 26.1782 88.7497 26.6006 88.5512 26.9949C88.3536 27.3792 88.0965 27.7299 87.7896 28.0342C87.4832 28.3445 87.1288 28.6035 86.74 28.8011C86.3461 29.0005 85.9243 29.1396 85.489 29.2134C85.0254 29.2891 84.5568 29.33 84.0871 29.3357C83.8674 29.3408 83.6374 29.3438 83.414 29.3438L82.601 29.3452L6.33359 29.3438Z" fill="black"/>
<path d="M18.5767 15.2252C18.5847 14.5993 18.751 13.9855 19.06 13.441C19.3691 12.8965 19.8108 12.4391 20.3441 12.1112C20.0053 11.6273 19.5583 11.2291 19.0387 10.9482C18.5191 10.6673 17.9411 10.5114 17.3507 10.4929C16.0913 10.3607 14.8703 11.2466 14.2286 11.2466C13.5744 11.2466 12.5862 10.5061 11.5222 10.528C10.8339 10.5502 10.1632 10.7503 9.57526 11.1089C8.98735 11.4674 8.50234 11.9721 8.16749 12.5739C6.71699 15.0852 7.79894 18.776 9.18839 20.8059C9.88357 21.7999 10.696 22.9103 11.7591 22.8709C12.7994 22.8278 13.1879 22.2075 14.4437 22.2075C15.6877 22.2075 16.0523 22.8709 17.1369 22.8459C18.2532 22.8277 18.9565 21.8474 19.6273 20.844C20.1268 20.1357 20.5111 19.3529 20.7661 18.5246C20.1176 18.2503 19.5641 17.7912 19.1748 17.2045C18.7855 16.6178 18.5774 15.9294 18.5767 15.2252Z" fill="white"/>
<path d="M16.528 9.158C17.1366 8.42735 17.4365 7.48821 17.3639 6.54004C16.434 6.6377 15.5751 7.08212 14.9582 7.78475C14.6566 8.128 14.4256 8.52732 14.2784 8.9599C14.1312 9.39248 14.0707 9.84982 14.1004 10.3058C14.5655 10.3106 15.0257 10.2098 15.4461 10.011C15.8666 9.81214 16.2365 9.5205 16.528 9.158Z" fill="white"/>
<path d="M31.7267 20.3545H28.1767L27.3242 22.8718H25.8205L29.183 13.5583H30.7453L34.1078 22.8718H32.5785L31.7267 20.3545ZM28.5444 19.1929H31.3584L29.9712 15.1074H29.9323L28.5444 19.1929Z" fill="white"/>
<path d="M41.3698 19.4771C41.3698 21.5872 40.2404 22.9429 38.536 22.9429C38.1043 22.9655 37.6749 22.866 37.2971 22.6559C36.9192 22.4458 36.6082 22.1336 36.3996 21.7549H36.3673V25.1182H34.9735V16.0816H36.3227V17.211H36.3483C36.5665 16.8341 36.8828 16.5235 37.2635 16.3121C37.6442 16.1007 38.0752 15.9965 38.5104 16.0105C40.2338 16.0105 41.3698 17.3728 41.3698 19.4771ZM39.9372 19.4771C39.9372 18.1023 39.2267 17.1985 38.1427 17.1985C37.0778 17.1985 36.3615 18.1214 36.3615 19.4771C36.3615 20.8453 37.0778 21.7615 38.1427 21.7615C39.2267 21.7615 39.9372 20.8643 39.9372 19.4771Z" fill="white"/>
<path d="M48.8434 19.4771C48.8434 21.5872 47.714 22.9429 46.0097 22.9429C45.5779 22.9655 45.1486 22.866 44.7707 22.6559C44.3929 22.4458 44.0818 22.1336 43.8732 21.7549H43.8409V25.1182H42.4471V16.0816H43.7963V17.211H43.8219C44.0401 16.8341 44.3564 16.5235 44.7371 16.3121C45.1179 16.1007 45.5488 15.9965 45.984 16.0105C47.7074 16.0105 48.8434 17.3728 48.8434 19.4771ZM47.4108 19.4771C47.4108 18.1023 46.7003 17.1985 45.6163 17.1985C44.5514 17.1985 43.8351 18.1214 43.8351 19.4771C43.8351 20.8452 44.5514 21.7615 45.6163 21.7615C46.7003 21.7615 47.4108 20.8643 47.4108 19.4771H47.4108Z" fill="white"/>
<path d="M53.7829 20.2769C53.8861 21.2005 54.7834 21.8069 56.0094 21.8069C57.1842 21.8069 58.0294 21.2005 58.0294 20.3677C58.0294 19.6448 57.5197 19.2119 56.3126 18.9153L55.1056 18.6245C53.3954 18.2114 52.6015 17.4116 52.6015 16.1138C52.6015 14.5068 54.0019 13.4031 55.9904 13.4031C57.9584 13.4031 59.3075 14.5068 59.3529 16.1138H57.9459C57.8617 15.1843 57.0934 14.6233 55.9706 14.6233C54.8478 14.6233 54.0795 15.1909 54.0795 16.0171C54.0795 16.6755 54.5702 17.063 55.7706 17.3596L56.7968 17.6116C58.7076 18.0635 59.5016 18.8311 59.5016 20.1933C59.5016 21.9358 58.1136 23.0271 55.9061 23.0271C53.8407 23.0271 52.4462 21.9614 52.3561 20.2768L53.7829 20.2769Z" fill="white"/>
<path d="M62.5097 14.4746V16.0815H63.801V17.1853H62.5097V20.9287C62.5097 21.5103 62.7682 21.7813 63.3359 21.7813C63.4892 21.7786 63.6422 21.7678 63.7944 21.749V22.8462C63.5392 22.8939 63.2798 22.9154 63.0202 22.9106C61.6454 22.9106 61.1093 22.3943 61.1093 21.0774V17.1853H60.122V16.0815H61.1093V14.4746H62.5097Z" fill="white"/>
<path d="M64.5488 19.477C64.5488 17.3406 65.8071 15.998 67.7693 15.998C69.738 15.998 70.9905 17.3405 70.9905 19.477C70.9905 21.6194 69.7446 22.9561 67.7693 22.9561C65.7946 22.9561 64.5488 21.6194 64.5488 19.477ZM69.5703 19.477C69.5703 18.0115 68.8987 17.1465 67.7693 17.1465C66.6399 17.1465 65.969 18.0181 65.969 19.477C65.969 20.9485 66.6399 21.8069 67.7693 21.8069C68.8987 21.8069 69.5703 20.9485 69.5703 19.477H69.5703Z" fill="white"/>
<path d="M72.1396 16.0815H73.4689V17.2373H73.5012C73.5911 16.8763 73.8026 16.5573 74.1 16.3339C74.3975 16.1105 74.7628 15.9963 75.1345 16.0105C75.2951 16.0099 75.4553 16.0273 75.612 16.0625V17.3662C75.4093 17.3042 75.1977 17.2758 74.9858 17.2819C74.7833 17.2737 74.5814 17.3094 74.3941 17.3866C74.2067 17.4638 74.0382 17.5806 73.9002 17.729C73.7622 17.8774 73.658 18.0539 73.5947 18.2464C73.5314 18.4389 73.5105 18.6428 73.5334 18.8442V22.8718H72.1396L72.1396 16.0815Z" fill="white"/>
<path d="M82.0383 20.8774C81.8508 22.1101 80.6503 22.9561 79.1144 22.9561C77.1391 22.9561 75.913 21.6326 75.913 19.5093C75.913 17.3794 77.1457 15.998 79.0558 15.998C80.9345 15.998 82.1159 17.2886 82.1159 19.3474V19.825H77.32V19.9092C77.2979 20.1591 77.3292 20.4108 77.4118 20.6477C77.4944 20.8846 77.6265 21.1012 77.7993 21.2831C77.9721 21.465 78.1815 21.6081 78.4139 21.7028C78.6462 21.7975 78.896 21.8417 79.1467 21.8325C79.476 21.8634 79.8066 21.7871 80.0891 21.615C80.3716 21.4429 80.5911 21.1842 80.7148 20.8774L82.0383 20.8774ZM77.3266 18.8508H80.7214C80.7339 18.6261 80.6998 18.4013 80.6213 18.1904C80.5428 17.9795 80.4215 17.7871 80.2652 17.6252C80.1088 17.4634 79.9206 17.3357 79.7125 17.25C79.5044 17.1643 79.2808 17.1226 79.0558 17.1274C78.8289 17.1261 78.6039 17.1697 78.3938 17.2558C78.1838 17.3418 77.9929 17.4686 77.8321 17.6288C77.6714 17.7891 77.5439 17.9795 77.4572 18.1893C77.3704 18.399 77.326 18.6239 77.3266 18.8508V18.8508Z" fill="white"/>
<path d="M27.5537 8.44004H28.1521C28.2551 8.45287 28.3597 8.44422 28.4592 8.41464C28.5587 8.38505 28.6509 8.33518 28.7302 8.26816C28.8095 8.20114 28.874 8.11842 28.9197 8.02523C28.9654 7.93203 28.9914 7.83037 28.9958 7.72666C28.9958 7.31395 28.6853 7.04734 28.1587 7.04734C28.0532 7.0326 27.9457 7.03915 27.8428 7.0666C27.7398 7.09406 27.6434 7.14187 27.5592 7.2072C27.475 7.27254 27.4048 7.35408 27.3526 7.44701C27.3005 7.53994 27.2675 7.64238 27.2556 7.74827H26.5986C26.6099 7.55605 26.6607 7.36821 26.7477 7.19645C26.8348 7.02469 26.9562 6.87269 27.1046 6.74991C27.2529 6.62714 27.4249 6.53621 27.6099 6.48279C27.7949 6.42938 27.989 6.41462 28.1799 6.43943C29.061 6.43943 29.6814 6.93271 29.6814 7.6428C29.6835 7.88068 29.6039 8.11208 29.4559 8.29836C29.308 8.48464 29.1006 8.61454 28.8684 8.66636V8.7191C29.1437 8.7313 29.4029 8.85199 29.5894 9.05477C29.7759 9.25756 29.8746 9.52594 29.8638 9.80125C29.8434 9.99917 29.7837 10.191 29.6882 10.3656C29.5928 10.5401 29.4634 10.6939 29.3077 10.8178C29.1521 10.9417 28.9732 11.0333 28.7817 11.0872C28.5902 11.1411 28.3898 11.1562 28.1924 11.1317C27.9945 11.1587 27.7933 11.1455 27.6006 11.0931C27.4079 11.0406 27.2278 10.9499 27.0709 10.8263C26.9141 10.7027 26.7837 10.5488 26.6876 10.3738C26.5915 10.1988 26.5316 10.0062 26.5115 9.80748H27.1787C27.219 10.2356 27.6123 10.5117 28.1924 10.5117C28.7725 10.5117 29.1511 10.2016 29.1511 9.76429C29.1511 9.32081 28.7944 9.04762 28.1711 9.04762H27.5537V8.44004Z" fill="white"/>
<path d="M30.6218 10.0681C30.6218 9.4602 31.0752 9.10974 31.8779 9.05993L32.7927 9.0072V8.7157C32.7927 8.359 32.5576 8.15759 32.1013 8.15759C31.7293 8.15759 31.4722 8.29419 31.3975 8.53296H30.7522C30.8203 7.95288 31.3667 7.58081 32.1328 7.58081C32.9795 7.58081 33.457 8.00231 33.457 8.7157V11.0232H32.8147V10.5486H32.762C32.6549 10.7188 32.5046 10.8576 32.3264 10.9508C32.1482 11.0439 31.9484 11.0881 31.7476 11.0788C31.6058 11.0936 31.4625 11.0785 31.3269 11.0344C31.1914 10.9904 31.0665 10.9185 30.9604 10.8232C30.8544 10.728 30.7695 10.6116 30.7111 10.4816C30.6528 10.3515 30.6224 10.2106 30.6218 10.0681ZM32.7927 9.77953V9.49719L31.968 9.54992C31.5029 9.58105 31.292 9.73925 31.292 10.037C31.292 10.3409 31.5556 10.5178 31.9182 10.5178C32.0244 10.5286 32.1318 10.5178 32.2338 10.4863C32.3358 10.4547 32.4304 10.403 32.512 10.3341C32.5936 10.2652 32.6605 10.1806 32.7087 10.0853C32.7569 9.99006 32.7855 9.88607 32.7927 9.77953Z" fill="white"/>
<path d="M35.2258 8.20703V11.0232H34.5593V7.646H36.783V8.207L35.2258 8.20703Z" fill="white"/>
<path d="M40.8223 9.33334C40.8223 10.4063 40.2795 11.0791 39.427 11.0791C39.2177 11.0934 39.0087 11.0476 38.8246 10.9471C38.6405 10.8466 38.4889 10.6956 38.3877 10.5118H38.335V12.1462H37.6685V7.64621H38.3101V8.20434H38.3599C38.4629 8.01417 38.6164 7.85617 38.8036 7.74779C38.9907 7.63942 39.2042 7.58488 39.4204 7.5902C40.2795 7.59018 40.8223 8.25997 40.8223 9.33334ZM40.1367 9.33334C40.1367 8.61996 39.7991 8.18893 39.2344 8.18893C38.6734 8.18893 38.3225 8.62911 38.3225 9.33627C38.3225 10.0401 38.6733 10.4807 39.2314 10.4807C39.7991 10.4807 40.1367 10.0496 40.1367 9.33334Z" fill="white"/>
<path d="M41.7099 12.2328V11.6589C41.7821 11.6681 41.8547 11.6723 41.9274 11.6714C42.0694 11.6819 42.2103 11.6396 42.323 11.5526C42.4358 11.4657 42.5124 11.3401 42.5383 11.2001L42.5881 11.0356L41.3657 7.646H42.0915L42.9382 10.3285H42.9909L43.8347 7.646H44.5415L43.2825 11.1627C42.9939 11.9845 42.6745 12.2482 41.9861 12.2482C41.9304 12.2482 41.7722 12.2419 41.7099 12.2328Z" fill="white"/>
<path d="M45.0608 10.0649H45.7244C45.7896 10.3626 46.0686 10.5179 46.459 10.5179C46.9028 10.5179 47.1753 10.3223 47.1753 10.0184C47.1753 9.69284 46.9307 9.53756 46.459 9.53756H45.9536V9.01974H46.4502C46.853 9.01974 47.0581 8.86484 47.0581 8.58249C47.0581 8.33456 46.8596 8.14524 46.4502 8.14524C46.0774 8.14524 45.8049 8.30345 45.7617 8.57005H45.1194C45.1674 8.2637 45.3337 7.98844 45.5826 7.80347C45.8315 7.61849 46.143 7.53857 46.4502 7.58091C47.2529 7.58091 47.7122 7.94383 47.7122 8.51438C47.7159 8.67327 47.665 8.82862 47.5679 8.95447C47.4709 9.08032 47.3336 9.16904 47.179 9.20579V9.25853C47.363 9.28227 47.532 9.37277 47.6538 9.51284C47.7756 9.65291 47.8417 9.83281 47.8396 10.0184C47.8396 10.6604 47.2932 11.0852 46.459 11.0852C45.7214 11.0852 45.1223 10.7471 45.0608 10.0649Z" fill="white"/>
<path d="M48.7994 11.0232V7.646H49.4601V9.96888H49.5128L51.0692 7.646H51.7299V11.0232H51.0692V8.68788H51.0194L49.4601 11.0232L48.7994 11.0232Z" fill="white"/>
<path d="M55.3693 8.20724H54.3058V11.0234H53.6385V8.20724H52.575V7.64624H55.3693V8.20724Z" fill="white"/>
<path d="M58.9596 10.1114C58.8688 10.42 58.6724 10.687 58.4048 10.8655C58.1372 11.0441 57.8153 11.123 57.4955 11.0884C57.273 11.0943 57.0519 11.0517 56.8475 10.9635C56.6431 10.8754 56.4604 10.7438 56.3119 10.578C56.1635 10.4121 56.0529 10.216 55.9879 10.0031C55.9229 9.79022 55.905 9.56576 55.9354 9.34527C55.9058 9.12411 55.924 8.89916 55.9889 8.68565C56.0538 8.47215 56.1637 8.27508 56.3114 8.10777C56.459 7.94047 56.6409 7.80684 56.8447 7.71593C57.0485 7.62503 57.2694 7.57896 57.4926 7.58087C58.4322 7.58087 58.9999 8.22287 58.9999 9.28337V9.51594H56.6151V9.55329C56.6046 9.67725 56.62 9.80205 56.6606 9.91967C56.7011 10.0373 56.7658 10.1451 56.8505 10.2362C56.9353 10.3274 57.0381 10.3997 57.1524 10.4488C57.2668 10.4978 57.3901 10.5223 57.5145 10.5208C57.6738 10.5398 57.8352 10.5111 57.9782 10.4382C58.1211 10.3653 58.2391 10.2515 58.3173 10.1114L58.9596 10.1114ZM56.6151 9.02301H58.3202C58.3286 8.90972 58.3132 8.79593 58.2751 8.68893C58.2369 8.58193 58.1768 8.4841 58.0986 8.40171C58.0204 8.31932 57.9258 8.2542 57.8209 8.21053C57.716 8.16686 57.6032 8.14561 57.4896 8.14814C57.3743 8.14657 57.2598 8.16813 57.153 8.21154C57.0462 8.25496 56.9491 8.31935 56.8676 8.40091C56.7861 8.48247 56.7217 8.57954 56.6784 8.68639C56.635 8.79325 56.6135 8.90771 56.6151 9.02301H56.6151Z" fill="white"/>
<path d="M61.7853 7.646H63.308C63.9686 7.646 64.3561 7.98071 64.3561 8.50475C64.3571 8.67103 64.301 8.83262 64.1971 8.96248C64.0933 9.09233 63.948 9.18258 63.7855 9.21812V9.27086C63.9827 9.28332 64.1677 9.37106 64.3021 9.51595C64.4365 9.66084 64.5101 9.85181 64.5077 10.0494C64.5077 10.6387 64.0646 11.0232 63.3234 11.0232H61.7853V7.646ZM62.4459 8.15759V9.03209H63.1066C63.5094 9.03209 63.702 8.87719 63.702 8.59154C63.702 8.32824 63.5343 8.15759 63.1806 8.15759L62.4459 8.15759ZM62.4459 9.5221V10.5116H63.2362C63.6303 10.5116 63.8412 10.3377 63.8412 10.0183C63.8412 9.68031 63.6024 9.52211 63.1527 9.52211L62.4459 9.5221Z" fill="white"/>
</g>
<defs>
<clipPath id="clip0">
<rect width="89.7481" height="30" fill="white"/>
</clipPath>
</defs>
</svg>
