<svg width="18" height="18" viewBox="0 0 18 18" fill="none" xmlns="http://www.w3.org/2000/svg">
<g clip-path="url(#clip0)">
<path d="M7.96157 -0.0214844C6.60603 -0.0214844 5.51703 1.1049 5.51703 2.46667V2.76921H2.76926C2.3878 2.76921 2.07695 3.08005 2.07695 3.46152V4.15382H1.38464V5.53844H2.76926V15.9231C2.76926 17.0619 3.70734 18 4.84618 18H13.1539C14.2927 18 15.2308 17.0619 15.2308 15.9231V5.53844H16.6154V4.15382H15.9231V3.46152C15.9231 3.08005 15.6123 2.76921 15.2308 2.76921H12.483V2.46598C12.483 1.1049 11.394 -0.0214844 10.0385 -0.0214844H7.96157ZM7.96157 1.40605H10.0385C10.5951 1.40605 11.0555 1.86021 11.0555 2.46598V2.76921H6.94387V2.46598C6.94387 1.86021 7.40426 1.40675 7.96087 1.40675L7.96157 1.40605ZM4.15387 5.53844H7.70195C7.7878 5.54744 7.87295 5.5599 7.96157 5.5599H10.0385C10.1271 5.5599 10.2116 5.54744 10.2981 5.53844H13.8462V15.9231C13.8462 16.3128 13.5436 16.6154 13.1539 16.6154H4.84618C4.45641 16.6154 4.15387 16.3128 4.15387 15.9231V5.53844ZM5.53849 6.92305V15.2307H6.92311V6.92305H5.53849ZM8.30772 6.92305V15.2307H9.69234V6.92305H8.30772ZM11.077 6.92305V15.2307H12.4616V6.92305H11.077Z" fill="white"/>
</g>
<defs>
<clipPath id="clip0">
<rect width="18" height="18" fill="white"/>
</clipPath>
</defs>
</svg>
