<svg width="58" height="58" viewBox="0 0 58 58" fill="none" xmlns="http://www.w3.org/2000/svg">
<path d="M57.5011 26.4654L28.9995 0L0.498838 26.4654C0.0973649 26.8391 0.073515 27.4681 0.447164 27.8706C0.818825 28.2721 1.44985 28.2949 1.85133 27.9223L5.14957 24.8596V58H21.0495H36.9494H52.8494V24.8586L56.1476 27.9213C56.3384 28.0992 56.5819 28.1866 56.8244 28.1866C57.0917 28.1866 57.357 28.0803 57.5518 27.8696C57.9264 27.4681 57.9026 26.8391 57.5011 26.4654ZM23.037 56.0125V40.1126C23.037 36.8243 25.7112 34.1501 28.9995 34.1501C32.2878 34.1501 34.962 36.8243 34.962 40.1126V56.0125H23.037ZM50.8619 56.0125H36.9494V40.1126C36.9494 35.7292 33.3829 32.1626 28.9995 32.1626C24.6161 32.1626 21.0495 35.7292 21.0495 40.1126V56.0125H7.13706V23.0132L28.9995 2.71193L50.8619 23.0132V56.0125Z" fill="#828282"/>
</svg>
