<svg width="33" height="16" viewBox="0 0 33 16" fill="none" xmlns="http://www.w3.org/2000/svg">
<path d="M33 8.19234C33 9.5886 32.6347 10.8946 31.9041 12.1104C31.1734 13.3262 30.1587 14.2808 28.8598 14.9742C27.5725 15.6581 26.1344 16 24.5456 16C22.864 16 21.3332 15.5631 19.9531 14.6892C18.573 13.8154 17.4191 12.5378 16.4913 10.8566C15.5519 12.5568 14.398 13.8391 13.0295 14.7035C11.661 15.5678 10.1418 16 8.4718 16C6.88297 16 5.44491 15.6628 4.15762 14.9884C2.87032 14.3045 1.85556 13.3547 1.11334 12.1389C0.371112 10.9231 0 9.5981 0 8.16385V7.82191C0 6.42565 0.365314 5.11962 1.09594 3.90383C1.82657 2.68804 2.83553 1.73345 4.12283 1.04007C5.42172 0.34669 6.85978 0 8.43701 0C10.1186 0 11.6436 0.436925 13.0121 1.31077C14.3922 2.17513 15.5519 3.45741 16.4913 5.15761C17.4191 3.4764 18.573 2.19887 19.9531 1.32502C21.3448 0.441674 22.8872 0 24.5804 0C26.9694 0 28.97 0.759869 30.582 2.27961C32.194 3.78985 33 5.69902 33 8.00712V8.19234ZM3.21824 8.19234C3.21824 9.87355 3.69953 11.2366 4.6621 12.2814C5.62467 13.3262 6.89457 13.8486 8.4718 13.8486C9.79389 13.8486 10.9884 13.4022 12.0554 12.5094C13.1339 11.6165 13.9747 10.396 14.5778 8.84773L14.7691 8.29208V7.69368C14.4908 6.75334 14.0211 5.82725 13.36 4.91541C12.699 4.00356 11.9452 3.31968 11.0986 2.86376C10.252 2.39834 9.36479 2.16563 8.43701 2.16563C6.88297 2.16563 5.62467 2.68804 4.6621 3.73286C3.69953 4.77768 3.21824 6.17869 3.21824 7.93589V8.19234ZM29.7818 7.82191C29.7818 6.16919 29.3005 4.81567 28.3379 3.76135C27.3753 2.69754 26.1228 2.16563 24.5804 2.16563C23.2467 2.16563 22.0348 2.6168 20.9446 3.51915C19.8545 4.41199 19.0021 5.65628 18.3875 7.252L18.2309 7.69368V8.29208C18.486 9.21342 18.9499 10.1443 19.6226 11.0846C20.3068 12.0154 21.0664 12.7088 21.9014 13.1647C22.7364 13.6207 23.6178 13.8486 24.5456 13.8486C26.1228 13.8486 27.3869 13.3215 28.3379 12.2671C29.3005 11.2128 29.7818 9.81181 29.7818 8.06411V7.82191Z" fill="#FF7373"/>
</svg>
