<svg width="60" height="55" viewBox="0 0 60 55" fill="none" xmlns="http://www.w3.org/2000/svg">
<path d="M51.0004 18.8704V0.916667C51.0004 0.410441 50.5527 0 50.0004 0H40.0003C39.4476 0 39.0003 0.410441 39.0003 0.916667V7.87044L30.7068 0.268555C30.3167 -0.0890707 29.6833 -0.0890707 29.2932 0.268555L0.292971 26.8519C-0.097657 27.21 -0.097657 27.79 0.292971 28.1481L3.293 30.8981C3.68314 31.2557 4.31644 31.2557 4.70658 30.8981L7.00006 28.7962V54.0833C7.00006 54.5896 7.44733 55 8.00006 55H52.0004C52.5527 55 53.0004 54.5896 53.0004 54.0833V28.7962L55.2934 30.8981C55.6836 31.2557 56.3169 31.2557 56.707 30.8981L59.707 28.1481C60.0977 27.79 60.0977 27.21 59.707 26.8519L51.0004 18.8704ZM51.0004 53.1667H9.00007V26.9629L30.0002 7.71289L51.0004 26.9629V53.1667ZM56.0005 28.9538L30.7068 5.76855C30.3167 5.41093 29.6833 5.41093 29.2932 5.76855L4.00003 28.9538L2.41359 27.5L30.0002 2.21289L39.2933 10.7314C39.5789 10.9933 40.0091 11.0721 40.3827 10.9302C40.7562 10.7883 40.9998 10.4539 41.0003 10.0833V1.83333H49.0004V19.25C49.0004 19.493 49.1059 19.7262 49.2934 19.8981L57.5864 27.5L56.0005 28.9538Z" fill="#FF7373"/>
<path d="M21.0002 27.5V33.1687C19.8059 33.5559 19.0051 34.5889 19.0002 35.75V48.5833C19.0002 50.102 20.343 51.3333 22.0002 51.3333H38.0003C39.657 51.3333 41.0003 50.102 41.0003 48.5833V35.75C40.9949 34.5889 40.1946 33.5559 39.0003 33.1687V27.5C38.9949 23.9582 35.864 21.0878 32.0003 21.0833H28.0002C24.136 21.0878 21.0051 23.9582 21.0002 27.5ZM39.0003 48.5833C39.0003 49.0896 38.5525 49.5 38.0003 49.5H22.0002C21.4475 49.5 21.0002 49.0896 21.0002 48.5833V35.75C21.0002 35.2438 21.4475 34.8333 22.0002 34.8333H38.0003C38.5525 34.8333 39.0003 35.2438 39.0003 35.75V48.5833ZM33.0003 33H27.0002V27.5C27.0002 26.9938 27.4475 26.5833 28.0002 26.5833H32.0003C32.5525 26.5833 33.0003 26.9938 33.0003 27.5V33ZM37.0003 27.5V33H35.0003V27.5C35.0003 25.9813 33.657 24.75 32.0003 24.75H28.0002C26.343 24.75 25.0002 25.9813 25.0002 27.5V33H23.0002V27.5C23.0031 24.9697 25.24 22.9198 28.0002 22.9166H32.0003C34.76 22.9198 36.9969 24.9697 37.0003 27.5Z" fill="#FF7373"/>
<path d="M29.2912 36.7236C27.6496 37.0033 26.3654 38.1814 26.0622 39.6862C25.8488 40.7837 26.1945 41.9102 27.0002 42.745V44.9167C27.0002 46.4353 28.343 47.6667 30.0002 47.6667C31.657 47.6667 33.0003 46.4353 33.0003 44.9167V42.7441C34.1223 41.5745 34.3142 39.8822 33.4788 38.526C32.6433 37.1698 30.9631 36.447 29.2912 36.7236ZM31.3298 41.6891C31.1199 41.8632 30.9998 42.1108 31.0002 42.3704V44.9167C31.0002 45.4229 30.5525 45.8333 30.0002 45.8333C29.4475 45.8333 29.0002 45.4229 29.0002 44.9167V42.3704C28.9997 42.1103 28.8796 41.8628 28.6692 41.6891C28.1482 41.2684 27.9065 40.6283 28.032 40.0026C28.1882 39.2587 28.821 38.676 29.6321 38.5296C29.7536 38.5104 29.8767 38.5005 30.0002 38.5001C30.4705 38.4983 30.9255 38.6509 31.2839 38.9302C31.7371 39.278 31.9993 39.7918 32.0002 40.3334C31.9993 40.8526 31.7551 41.3463 31.3298 41.6891Z" fill="#FF7373"/>
</svg>
