<svg width="136" height="105" viewBox="0 0 136 105" fill="none" xmlns="http://www.w3.org/2000/svg">
<path d="M71.2648 61.8349C71.2648 75.6384 68.1521 86.2834 61.9267 93.7701C55.7481 101.257 47.0184 105 35.7377 105C24.3635 105 15.5636 101.233 9.33815 93.6999C3.11272 86.1664 0 75.5448 0 61.8349V43.1651C0 29.3616 3.08931 18.7166 9.26794 11.2299C15.4934 3.74332 24.2698 0 35.5973 0C46.9248 0 55.7013 3.76671 61.9267 11.3001C68.1521 18.8336 71.2648 29.4786 71.2648 43.2353V61.8349ZM47.6035 40.1471C47.6035 32.8008 46.6439 27.3262 44.7248 23.7233C42.8057 20.0735 39.7632 18.2487 35.5973 18.2487C31.525 18.2487 28.5527 19.9332 26.6804 23.3021C24.8549 26.6711 23.872 31.7714 23.7315 38.6029V64.7126C23.7315 72.3396 24.6911 77.9311 26.6102 81.4873C28.5293 84.9967 31.5718 86.7513 35.7377 86.7513C39.7632 86.7513 42.7355 85.0434 44.6546 81.6277C46.5737 78.1651 47.5567 72.7607 47.6035 65.4144V40.1471Z" fill="#FFFFFF"/>
<path d="M136 103.596H112.268V28.0749L88.9582 34.883V16.9151L133.823 1.40374H136V103.596Z" fill="#FFFFFF"/>
</svg>
