<svg width="155" height="105" viewBox="0 0 155 105" fill="none" xmlns="http://www.w3.org/2000/svg">
<path d="M71.3169 61.8637C71.3169 75.658 68.2019 86.2959 61.9719 93.7776C55.7888 101.259 47.0527 105 35.7638 105C24.3812 105 15.5749 101.236 9.34497 93.7074C3.11499 86.179 0 75.5645 0 61.8637V43.2064C0 29.4122 3.09157 18.7742 9.27471 11.2926C15.5047 3.81096 24.2875 0.0701403 35.6233 0.0701403C46.9591 0.0701403 55.7419 3.83434 61.9719 11.3627C68.2019 18.8911 71.3169 29.5291 71.3169 43.2766V61.8637ZM47.6383 40.1904C47.6383 32.849 46.678 27.3781 44.7575 23.7776C42.837 20.1303 39.7922 18.3066 35.6233 18.3066C31.5481 18.3066 28.5736 19.99 26.6999 23.3567C24.8731 26.7234 23.8894 31.8203 23.7489 38.6473V64.7395C23.7489 72.3614 24.7091 77.9492 26.6296 81.503C28.5502 85.01 31.5949 86.7635 35.7638 86.7635C39.7922 86.7635 42.7667 85.0568 44.6872 81.6433C46.6077 78.183 47.5914 72.7822 47.6383 65.4409V40.1904Z" fill="#FFFFFF"/>
<path d="M105.254 42.6453H116.426C125.279 42.6453 129.705 38.32 129.705 29.6693C129.705 26.3026 128.651 23.5671 126.544 21.4629C124.436 19.312 121.461 18.2365 117.62 18.2365C114.482 18.2365 111.741 19.1483 109.399 20.9719C107.104 22.7956 105.956 25.0635 105.956 27.7756H82.2779C82.2779 22.3981 83.7768 17.6052 86.7747 13.3968C89.7726 9.18838 93.9181 5.91516 99.2112 3.57715C104.551 1.19238 110.406 0 116.777 0C128.16 0 137.106 2.59519 143.617 7.78557C150.128 12.976 153.384 20.1069 153.384 29.1784C153.384 33.5738 152.026 37.7355 149.309 41.6633C146.639 45.5444 142.727 48.7007 137.575 51.1323C143.008 53.0962 147.271 56.0888 150.363 60.1102C153.454 64.0848 155 69.018 155 74.9098C155 84.0281 151.487 91.3226 144.461 96.7936C137.434 102.265 128.206 105 116.777 105C110.079 105 103.849 103.737 98.087 101.212C92.3723 98.6406 88.0394 95.1102 85.0884 90.6212C82.1374 86.0855 80.6618 80.9419 80.6618 75.1904H104.481C104.481 78.3233 105.746 81.0354 108.275 83.3267C110.805 85.6179 113.92 86.7635 117.62 86.7635C121.789 86.7635 125.115 85.6179 127.597 83.3267C130.08 80.9886 131.321 78.0194 131.321 74.4188C131.321 69.2752 130.033 65.6279 127.457 63.477C124.881 61.326 121.321 60.2505 116.777 60.2505H105.254V42.6453Z" fill="#FFFFFF"/>
</svg>
