<svg width="17" height="17" viewBox="0 0 17 17" fill="none" xmlns="http://www.w3.org/2000/svg">
<path d="M8.15234 2C6.1169 2 4.46094 3.65596 4.46094 5.69141C4.46094 7.72685 6.1169 9.38281 8.15234 9.38281C10.1878 9.38281 11.8438 7.72685 11.8438 5.69141C11.8438 3.65596 10.1878 2 8.15234 2Z" fill="#3F3F3F"/>
<path d="M12.7452 11.7944C11.7345 10.7682 10.3948 10.2031 8.97266 10.2031H7.33203C5.90994 10.2031 4.57015 10.7682 3.55952 11.7944C2.55385 12.8155 2 14.1634 2 15.5898C2 15.8164 2.18364 16 2.41016 16H13.8945C14.121 16 14.3047 15.8164 14.3047 15.5898C14.3047 14.1634 13.7508 12.8155 12.7452 11.7944Z" fill="#3F3F3F"/>
</svg>
