<svg width="25" height="25" viewBox="0 0 25 25" fill="none" xmlns="http://www.w3.org/2000/svg">
<g clip-path="url(#clip0)">
<path d="M12.9167 25.3906C14.349 25.3906 15.5208 24.2188 15.5208 22.7865H10.3125C10.3125 23.4771 10.5869 24.1395 11.0752 24.6279C11.5636 25.1163 12.226 25.3906 12.9167 25.3906ZM20.7292 17.5781V11.0677C20.7292 7.07031 18.5938 3.72396 14.8698 2.83854V1.95312C14.8698 0.872396 13.9974 0 12.9167 0C11.8359 0 10.9635 0.872396 10.9635 1.95312V2.83854C7.22656 3.72396 5.10417 7.05729 5.10417 11.0677V17.5781L2.5 20.1823V21.4844H23.3333V20.1823L20.7292 17.5781Z" fill="#8CC3E2"/>
</g>
<defs>
<clipPath id="clip0">
<rect width="25" height="25" fill="white"/>
</clipPath>
</defs>
</svg>
