<svg width="60" height="60" viewBox="0 0 60 60" fill="none" xmlns="http://www.w3.org/2000/svg">
<path d="M48.6555 10.7223L41.1834 0.0250387L18.8856 0L11.3903 10.6797L29.9972 33.4688L48.6555 10.7223ZM35.4728 11.6289L30.0019 28.7502L24.5711 11.617L35.4728 11.6289ZM25.1084 9.68198L30.0312 2.66734L34.9394 9.69379L25.1084 9.68198ZM37.5028 11.6317L45.3988 11.6402L32.46 27.4142L37.5028 11.6317ZM38.2267 9.69757L40.9093 3.0141L45.5836 9.70654L38.2267 9.69757ZM36.5663 8.64121L31.892 1.94972L39.2488 1.95822L36.5663 8.64121ZM23.4843 8.62751L20.8164 1.93696L28.1741 1.94594L23.4843 8.62751ZM21.82 9.6782L14.4632 9.66969L19.1516 2.98765L21.82 9.6782ZM22.5397 11.6142L27.5461 27.4075L14.6451 11.6057L22.5397 11.6142Z" fill="#FF7373"/>
<path d="M57.8944 27.1038L46.2205 31.3481L46.9048 33.5359L42.3524 35.8116H35.5366C34.506 35.8116 33.5005 36.0563 32.581 36.5032L29.2917 34.8582L15.8652 33.9634L16.7035 31.2824L2.20057 27.1411L0 27.1038V48.3896H11.3568L11.8241 46.8943L15.4172 49.7691L15.0969 50.1957C14.7226 50.695 14.5161 51.3134 14.5161 51.9375V52.2597C14.5161 53.8598 15.8189 55.1623 17.4194 55.1623C17.7941 55.1623 18.1551 55.0721 18.4948 54.9355C18.8247 56.1761 19.9474 57.0974 21.2903 57.0974C21.665 57.0974 22.0261 57.0072 22.3658 56.8706C22.6956 58.1112 23.8184 59.0325 25.1613 59.0325C25.9726 59.0325 26.7367 58.6734 27.2806 58.0843C27.6874 59.1978 28.7468 60 30 60H30.1668C30.9418 60 31.6713 59.6981 32.219 59.1491L32.9354 58.4334C33.4509 58.8128 34.0775 59.0325 34.722 59.0325C36.0715 59.0325 37.2042 58.1363 37.5903 56.9122C37.9116 57.0265 38.248 57.0974 38.593 57.0974C40.2213 57.0974 41.5453 55.7987 41.6025 54.1839C43.2176 54.1267 44.5161 52.8035 44.5161 51.175C44.5161 50.7404 44.4183 50.3227 44.2454 49.9382L46.686 49.3278L51.037 46.7601L51.5469 48.3896H60V27.1038H57.8944ZM1.93548 46.4545V29.0776L14.2647 32.5991L9.934 46.4545H1.93548ZM17.4194 53.2272C16.8854 53.2272 16.4516 52.7926 16.4516 52.2597V51.9375C16.4516 51.7301 16.5206 51.5241 16.6453 51.3569L18.5818 48.7765C18.7628 48.5336 19.0519 48.3896 19.3548 48.3896C19.8893 48.3896 20.3226 48.8237 20.3226 49.3571V49.6793C20.3226 49.8862 20.2541 50.0922 20.1293 50.2594L18.1929 52.8398C18.0119 53.0827 17.7222 53.2272 17.4194 53.2272ZM21.2903 55.1623C20.7564 55.1623 20.3226 54.7277 20.3226 54.1948V53.8726C20.3226 53.6652 20.3916 53.4592 20.5163 53.292L22.4527 50.7115C22.6337 50.4687 22.9229 50.3246 23.2258 50.3246C23.7602 50.3246 24.1935 50.7588 24.1935 51.2922V51.6144C24.1935 51.8213 24.125 52.0273 24.0003 52.1945L22.0639 54.7749C21.8829 55.0177 21.5932 55.1623 21.2903 55.1623ZM25.9348 56.7109C25.7538 56.9528 25.4642 57.0974 25.1613 57.0974C24.6273 57.0974 24.1935 56.6627 24.1935 56.1298V55.8077C24.1935 55.6003 24.2625 55.3943 24.3873 55.227L26.3237 52.6466C26.5047 52.4038 26.7939 52.2597 27.0968 52.2597C27.6312 52.2597 28.0645 52.6939 28.0645 53.2272V53.5494C28.0645 53.7564 27.996 53.9623 27.8713 54.1296L25.9348 56.7109ZM31.9355 56.2952C31.9355 56.5536 31.8348 56.7974 31.652 56.9802L30.851 57.7815C30.67 57.961 30.421 58.0649 30.1668 58.0649H30C29.466 58.0649 29.0323 57.6303 29.0323 57.0974V56.9316C29.0323 56.6736 29.1329 56.4298 29.3158 56.2465L30.1172 55.4458C30.2982 55.2658 30.5467 55.1623 30.8014 55.1623H30.9677C31.5022 55.1623 31.9355 55.5965 31.9355 56.1298V56.2952ZM41.4962 52.2597C41.2103 52.2597 40.9306 52.1435 40.7283 51.9422L35.5229 46.7379L34.1545 48.1061L35.1222 49.0736L39.3604 53.3104C39.5654 53.5154 39.6774 53.7871 39.6774 54.0776C39.6774 54.6752 39.1907 55.1623 38.593 55.1623C38.3071 55.1623 38.0273 55.0461 37.8251 54.8448L32.6197 49.6406L31.2513 51.0087L35.4894 55.2455C35.6945 55.4505 35.8064 55.7221 35.8064 56.0127C35.8064 56.6103 35.3197 57.0974 34.722 57.0974C34.4361 57.0974 34.1564 56.9812 33.9541 56.7799L33.8355 56.6609C33.8506 56.5399 33.871 56.4199 33.871 56.2952V56.1298C33.871 54.5293 32.5687 53.2272 30.9677 53.2272H30.8014C30.5245 53.2272 30.2585 53.2783 30 53.3529V53.2272C30 51.6266 28.6977 50.3246 27.0968 50.3246C26.7225 50.3246 26.3615 50.4144 26.0218 50.5509C25.6919 49.3103 24.5692 48.3896 23.2258 48.3896C22.8516 48.3896 22.4905 48.4793 22.1508 48.6159C21.821 47.3753 20.6982 46.4545 19.3548 46.4545C18.4452 46.4545 17.5772 46.8886 17.0333 47.6152L16.5797 48.22L12.4431 44.912L15.2712 35.8636L28.7728 36.7635L30.6039 37.6786L26.6857 40.1277C25.7316 40.7244 25.1613 41.751 25.1613 42.8763V43.2141C25.1613 45.0013 26.6157 46.4545 28.4033 46.4545C28.9897 46.4545 29.5667 46.2948 30.0709 45.992L33.7037 43.8131C34.4101 43.3894 35.3632 43.5079 35.943 44.0886L42.2636 50.4078C42.4687 50.6128 42.5806 50.8845 42.5806 51.175C42.5806 51.7726 42.0939 52.2597 41.4962 52.2597ZM46.0774 47.4858L42.8769 48.2856L37.3105 42.7204C36.1164 41.5266 34.1597 41.2828 32.7071 42.1535L29.0729 44.3333C28.8707 44.4552 28.6396 44.5194 28.4033 44.5194C27.6822 44.5194 27.0968 43.9341 27.0968 43.2141V42.8763C27.0968 42.4237 27.3264 42.0094 27.7115 41.7694L32.9732 38.4818C33.7424 38.0008 34.6289 37.7467 35.5366 37.7467H42.8103L47.4893 35.4072L50.4454 44.8657L46.0774 47.4858ZM58.0645 46.4545H52.9697L48.6186 32.5343L58.0645 29.1007V46.4545Z" fill="#FF7373"/>
</svg>
