<svg width="60" height="67" viewBox="0 0 60 67" fill="none" xmlns="http://www.w3.org/2000/svg">
<path d="M59.7369 58.2057L52.1308 49.1688C54.5954 48.4882 56.7244 47.0315 58.1481 45.0517C59.9394 42.1904 59.1294 38.6983 58.3456 35.3252C57.8717 33.5924 57.5882 31.8198 57.4994 30.0345C57.5878 28.2476 57.8713 26.4734 58.3456 24.7392C59.1244 21.3638 59.9394 17.874 58.1481 15.0172C56.2932 12.0554 52.5583 10.9591 48.9459 9.90098C47.1476 9.4431 45.4061 8.81281 43.7497 8.02036C42.2466 7.11933 40.851 6.0739 39.5861 4.9014C36.9061 2.6026 33.8675 0 30 0C26.1326 0 23.094 2.6026 20.4128 4.90024C19.1483 6.07303 17.753 7.11889 16.2504 8.02036C14.5941 8.81122 12.8531 9.43993 11.0555 9.89636C7.44307 10.9545 3.70815 12.0508 1.85319 15.0126C0.0619862 17.874 0.871967 21.3661 1.6557 24.7392C2.12959 26.4735 2.41271 28.2476 2.50068 30.0345C2.41224 31.8214 2.12881 33.5956 1.65445 35.3298C0.875717 38.7052 0.0607363 42.195 1.85194 45.0517C3.27754 47.0323 5.40889 48.4885 7.87556 49.1676L0.263232 58.2045C-0.160508 58.7082 -0.0622298 59.4339 0.482914 59.8255C0.744783 60.0137 1.07665 60.0978 1.40571 60.0597L10.343 59.0282L12.5492 66.1625C12.6784 66.5807 13.0509 66.8963 13.5129 66.9792C13.5912 66.9929 13.6707 67 13.7504 67C14.1363 67.0003 14.5009 66.8357 14.7379 66.5541L22.7202 57.0655C24.6845 58.8328 27.2648 59.8974 30 60.069C32.7353 59.8974 35.3155 58.8328 37.2799 57.0655L45.2622 66.5506C45.4984 66.8335 45.863 66.9994 46.2497 67C46.3294 67 46.4089 66.9929 46.4872 66.9792C46.9492 66.8963 47.3217 66.5807 47.4509 66.1625L49.6571 59.0293L58.5944 60.0609C59.2794 60.1403 59.9044 59.6915 59.9903 59.0585C60.0315 58.7544 59.9404 58.4477 59.7369 58.2057ZM14.2754 63.3393L12.4517 57.4409C12.2822 56.8938 11.7066 56.5424 11.0955 56.6127L4.09564 57.4213L10.3692 49.9681L11.0605 50.1726C12.8564 50.6293 14.5957 51.258 16.2504 52.0486C17.7535 52.9496 19.149 53.9951 20.414 55.1676L20.844 55.5349L14.2754 63.3393ZM30 57.7586C27.1126 57.7586 24.6839 55.6793 22.1115 53.4752C20.712 52.183 19.1661 51.0341 17.5003 50.0478C15.688 49.1711 13.7803 48.4741 11.8092 47.9685C8.50554 46.9993 5.38436 46.0844 4.0144 43.8966C2.70693 41.8068 3.38191 38.8947 4.09814 35.8103C4.6136 33.9189 4.91609 31.9834 5.00062 30.0345C4.91656 28.0856 4.61454 26.1501 4.09939 24.2586C3.38316 21.1755 2.70817 18.2633 4.01564 16.1724C5.39061 13.9845 8.50679 13.0696 11.8105 12.1004C13.7812 11.5948 15.6883 10.8978 17.5003 10.0211C19.1656 9.03489 20.7112 7.88579 22.1102 6.59372C24.6839 4.38966 27.1126 2.31034 30 2.31034C32.8875 2.31034 35.3162 4.38966 37.8886 6.59372C39.2881 7.88593 40.834 9.03489 42.4998 10.0211C44.3121 10.8979 46.2198 11.5949 48.1909 12.1004C51.4945 13.0696 54.6157 13.9845 55.9857 16.1724C57.2932 18.2621 56.6182 21.1743 55.9019 24.2586C55.3865 26.1501 55.084 28.0856 54.9995 30.0345C55.0835 31.9834 55.3856 33.9189 55.9007 35.8103C56.6169 38.8935 57.2919 41.8057 55.9844 43.8966C54.6095 46.0844 51.4933 46.9993 48.1896 47.9685C46.2189 48.4742 44.3117 49.1712 42.4998 50.0478C40.8345 51.0341 39.2889 52.1832 37.8899 53.4752C35.3162 55.6793 32.8875 57.7586 30 57.7586ZM48.9109 56.6127C48.2998 56.5424 47.7242 56.8938 47.5546 57.4409L45.7247 63.3393L39.1573 55.5361L39.5873 55.1687C40.8518 53.9959 42.2471 52.9501 43.7497 52.0486C45.4059 51.2577 47.147 50.629 48.9446 50.1726L49.6358 49.9681L55.9107 57.4213L48.9109 56.6127Z" fill="#FF7373"/>
<path d="M30 9.24139C17.5739 9.24139 7.50049 18.5508 7.50049 30.0345C7.50049 41.5182 17.5739 50.8276 30 50.8276C42.4261 50.8276 52.4995 41.5182 52.4995 30.0345C52.4851 18.5563 42.4202 9.25482 30 9.24139ZM30 48.5172C18.9546 48.5172 10.0004 40.2422 10.0004 30.0345C10.0004 19.8268 18.9546 11.5517 30 11.5517C41.0454 11.5517 49.9996 19.8268 49.9996 30.0345C49.9864 40.2372 41.0401 48.5051 30 48.5172Z" fill="#FF7373"/>
<path d="M44.4221 25.2093C43.9518 24.6123 43.2012 24.2589 42.4022 24.2586H34.7499L32.375 17.5274C31.9439 16.3152 30.5311 15.6556 29.2194 16.054C28.4649 16.2832 27.8731 16.8301 27.6251 17.5274L25.2564 24.2586H17.5979C16.2171 24.2581 15.0973 25.2918 15.0967 26.5678C15.0962 27.3071 15.4787 28.0018 16.1254 28.4369L22.3202 32.5955L19.954 39.3267C19.5272 40.5403 20.2458 41.8437 21.5587 42.2381C22.3201 42.4668 23.1538 42.3446 23.8014 41.9097L30 37.7522L36.1961 41.9109C37.0689 42.5101 38.2632 42.5101 39.136 41.9109C40.0218 41.3291 40.3905 40.2796 40.0435 39.3279L37.6773 32.5955L43.8721 28.4369C44.9885 27.686 45.2348 26.2409 44.4221 25.2093ZM35.4724 31.2209C35.0339 31.5153 34.8507 32.0373 35.0186 32.5135L37.6661 40.0429L30.735 35.3899C30.297 35.0961 29.7043 35.0961 29.2663 35.3899L22.3352 40.0429L24.9814 32.5135C25.1488 32.0376 24.9656 31.5163 24.5277 31.222L17.5979 26.569H26.1639C26.7054 26.569 27.1853 26.2467 27.3526 25.7708L30 18.2413L32.6475 25.7696C32.8148 26.2455 33.2946 26.5678 33.8362 26.5678L42.4022 26.569L35.4724 31.2209Z" fill="#FF7373"/>
</svg>
