<svg width="155" height="105" viewBox="0 0 155 105" fill="none" xmlns="http://www.w3.org/2000/svg">
<path d="M71.3169 61.8637C71.3169 75.658 68.2019 86.2959 61.9719 93.7776C55.7888 101.259 47.0527 105 35.7638 105C24.3812 105 15.5749 101.236 9.34497 93.7074C3.11499 86.179 0 75.5645 0 61.8637V43.2064C0 29.4122 3.09157 18.7742 9.27471 11.2926C15.5047 3.81096 24.2875 0.0701403 35.6233 0.0701403C46.9591 0.0701403 55.7419 3.83434 61.9719 11.3627C68.2019 18.8911 71.3169 29.5291 71.3169 43.2766V61.8637ZM47.6383 40.1904C47.6383 32.849 46.678 27.3781 44.7575 23.7776C42.837 20.1303 39.7922 18.3066 35.6233 18.3066C31.5481 18.3066 28.5736 19.99 26.6999 23.3567C24.8731 26.7234 23.8894 31.8203 23.7489 38.6473V64.7395C23.7489 72.3614 24.7091 77.9492 26.6296 81.503C28.5502 85.01 31.5949 86.7635 35.7638 86.7635C39.7922 86.7635 42.7667 85.0568 44.6872 81.6433C46.6077 78.183 47.5914 72.7822 47.6383 65.4409V40.1904Z" fill="#FFFFFF"/>
<path d="M155 103.597H83.6129V88.1663L116.496 53.6573C124.6 44.4456 128.651 37.1276 128.651 31.7034C128.651 27.3079 127.691 23.9646 125.771 21.6733C123.85 19.3821 121.063 18.2365 117.409 18.2365C113.803 18.2365 110.875 19.7796 108.626 22.8657C106.378 25.9051 105.254 29.7161 105.254 34.2986H81.505C81.505 28.0327 83.0742 22.2578 86.2126 16.9739C89.351 11.6433 93.7073 7.48163 99.2815 4.48898C104.856 1.49633 111.086 0 117.971 0C129.026 0 137.528 2.54843 143.477 7.64529C149.473 12.7422 152.471 20.0601 152.471 29.5992C152.471 33.6206 151.721 37.5484 150.222 41.3828C148.723 45.1703 146.381 49.1683 143.196 53.3768C140.057 57.5384 134.975 63.1263 127.949 70.1403L114.739 85.3607H155V103.597Z" fill="#FFFFFF"/>
</svg>
